<svg xmlns="http://www.w3.org/2000/svg" width="1024" height="1024" viewBox="0 0 1024 1024">
  <defs>
    <linearGradient id="bg" x1="0" y1="0" x2="0" y2="1">
      <stop offset="0" stop-color="#3b4a63"/>
      <stop offset="1" stop-color="#1c2433"/>
    </linearGradient>
  </defs>
  <rect x="100" y="100" width="824" height="824" rx="185" fill="url(#bg)"/>
  <g transform="translate(212 212) scale(25)" fill="none" stroke="#ffffff" stroke-width="1.6" stroke-linecap="round" stroke-linejoin="round">
    <path d="M12 3v18"/>
    <path d="m19 8 3 8a5 5 0 0 1-6 0zV7"/>
    <path d="M3 7h1a17 17 0 0 0 8-2 17 17 0 0 0 8 2h1"/>
    <path d="m5 8 3 8a5 5 0 0 1-6 0zV7"/>
    <path d="M7 21h10"/>
  </g>
</svg>
